<?xml version="1.0" encoding="utf-8" standalone="no"?>
<!DOCTYPE svg PUBLIC "-//W3C//DTD SVG 1.1//EN"
  "http://www.w3.org/Graphics/SVG/1.1/DTD/svg11.dtd">
<svg xmlns:xlink="http://www.w3.org/1999/xlink" width="419.921377pt" height="206.329089pt" viewBox="0 0 419.921377 206.329089" xmlns="http://www.w3.org/2000/svg" version="1.1">
 <metadata>
  <rdf:RDF xmlns:dc="http://purl.org/dc/elements/1.1/" xmlns:cc="http://creativecommons.org/ns#" xmlns:rdf="http://www.w3.org/1999/02/22-rdf-syntax-ns#">
   <cc:Work>
    <dc:type rdf:resource="http://purl.org/dc/dcmitype/StillImage"/>
    <dc:date>2026-06-15T15:56:51.469964</dc:date>
    <dc:format>image/svg+xml</dc:format>
    <dc:creator>
     <cc:Agent>
      <dc:title>Matplotlib v3.11.0, https://matplotlib.org/</dc:title>
     </cc:Agent>
    </dc:creator>
   </cc:Work>
  </rdf:RDF>
 </metadata>
 <defs>
  <style type="text/css">*{stroke-linejoin: round; stroke-linecap: butt}</style>
 </defs>
 <g id="figure_1">
  <g id="patch_1">
   <path d="M 0 206.329089 
L 419.921377 206.329089 
L 419.921377 -0 
L 0 -0 
z
" style="fill: #ffffff"/>
  </g>
  <g id="axes_1">
   <g id="patch_2">
    <path d="M 38.861377 170.51896 
L 412.721377 170.51896 
L 412.721377 29.14696 
L 38.861377 29.14696 
z
" style="fill: #ffffff"/>
   </g>
   <g id="FillBetweenPolyCollection_1">
    <defs>
     <path id="m9d33c55500" d="M 55.855013 -165.064529 
L 55.855013 -114.574529 
L 123.829559 -114.574529 
L 191.804104 -114.574529 
L 259.77865 -89.329529 
L 327.753195 -89.329529 
L 395.727741 -89.329529 
L 395.727741 -165.064529 
L 395.727741 -165.064529 
L 327.753195 -165.064529 
L 259.77865 -165.064529 
L 191.804104 -165.064529 
L 123.829559 -165.064529 
L 55.855013 -165.064529 
z
"/>
    </defs>
    <g clip-path="url(#p98ace314a6)">
     <use xlink:href="#m9d33c55500" x="0" y="206.329089" style="fill: #d8e1e8; fill-opacity: 0.55"/>
    </g>
   </g>
   <g id="matplotlib.axis_1">
    <g id="xtick_1">
     <g id="line2d_1">
      <defs>
       <path id="m8342fe4c03" d="M 0 0 
L 0 3.5 
" style="stroke: #000000; stroke-width: 0.6"/>
      </defs>
      <g>
       <use xlink:href="#m8342fe4c03" x="55.855013" y="170.51896" style="stroke: #000000; stroke-width: 0.6"/>
      </g>
     </g>
     <g id="text_1">
      <text style="font-size: 7px; font-family: 'Arial', 'Helvetica', 'DejaVu Sans', sans-serif" transform="translate(21.712668 194.551226) rotate(-20)">linear_C0.5</text>
     </g>
    </g>
    <g id="xtick_2">
     <g id="line2d_2">
      <g>
       <use xlink:href="#m8342fe4c03" x="123.829559" y="170.51896" style="stroke: #000000; stroke-width: 0.6"/>
      </g>
     </g>
     <g id="text_2">
      <text style="font-size: 7px; font-family: 'Arial', 'Helvetica', 'DejaVu Sans', sans-serif" transform="translate(95.172523 192.554737) rotate(-20)">linear_C1</text>
     </g>
    </g>
    <g id="xtick_3">
     <g id="line2d_3">
      <g>
       <use xlink:href="#m8342fe4c03" x="191.804104" y="170.51896" style="stroke: #000000; stroke-width: 0.6"/>
      </g>
     </g>
     <g id="text_3">
      <text style="font-size: 7px; font-family: 'Arial', 'Helvetica', 'DejaVu Sans', sans-serif" transform="translate(163.147068 192.554737) rotate(-20)">linear_C3</text>
     </g>
    </g>
    <g id="xtick_4">
     <g id="line2d_4">
      <g>
       <use xlink:href="#m8342fe4c03" x="259.77865" y="170.51896" style="stroke: #000000; stroke-width: 0.6"/>
      </g>
     </g>
     <g id="text_4">
      <text style="font-size: 7px; font-family: 'Arial', 'Helvetica', 'DejaVu Sans', sans-serif" transform="translate(220.519972 196.413419) rotate(-20)">rbf_C3_scale</text>
     </g>
    </g>
    <g id="xtick_5">
     <g id="line2d_5">
      <g>
       <use xlink:href="#m8342fe4c03" x="327.753195" y="170.51896" style="stroke: #000000; stroke-width: 0.6"/>
      </g>
     </g>
     <g id="text_5">
      <text style="font-size: 7px; font-family: 'Arial', 'Helvetica', 'DejaVu Sans', sans-serif" transform="translate(284.836617 197.744786) rotate(-20)">rbf_C10_scale</text>
     </g>
    </g>
    <g id="xtick_6">
     <g id="line2d_6">
      <g>
       <use xlink:href="#m8342fe4c03" x="395.727741" y="170.51896" style="stroke: #000000; stroke-width: 0.6"/>
      </g>
     </g>
     <g id="text_6">
      <text style="font-size: 7px; font-family: 'Arial', 'Helvetica', 'DejaVu Sans', sans-serif" transform="translate(352.811163 197.744786) rotate(-20)">rbf_C30_scale</text>
     </g>
    </g>
   </g>
   <g id="matplotlib.axis_2">
    <g id="ytick_1">
     <g id="line2d_7">
      <path d="M 38.861377 142.24456 
L 412.721377 142.24456 
" clip-path="url(#p98ace314a6)" style="fill: none; stroke: #e7e9ec; stroke-width: 0.55; stroke-linecap: square"/>
     </g>
     <g id="line2d_8">
      <defs>
       <path id="me85eac43ed" d="M 0 0 
L -3.5 0 
" style="stroke: #000000; stroke-width: 0.6"/>
      </defs>
      <g>
       <use xlink:href="#me85eac43ed" x="38.861377" y="142.24456" style="stroke: #000000; stroke-width: 0.6"/>
      </g>
     </g>
     <g id="text_7">
      <text style="font-size: 7px; font-family: 'Arial', 'Helvetica', 'DejaVu Sans', sans-serif; text-anchor: end" x="31.861377" y="144.792656" transform="rotate(-0 31.861377 144.792656)">0.75</text>
     </g>
    </g>
    <g id="ytick_2">
     <g id="line2d_9">
      <path d="M 38.861377 101.85256 
L 412.721377 101.85256 
" clip-path="url(#p98ace314a6)" style="fill: none; stroke: #e7e9ec; stroke-width: 0.55; stroke-linecap: square"/>
     </g>
     <g id="line2d_10">
      <g>
       <use xlink:href="#me85eac43ed" x="38.861377" y="101.85256" style="stroke: #000000; stroke-width: 0.6"/>
      </g>
     </g>
     <g id="text_8">
      <text style="font-size: 7px; font-family: 'Arial', 'Helvetica', 'DejaVu Sans', sans-serif; text-anchor: end" x="31.861377" y="104.400656" transform="rotate(-0 31.861377 104.400656)">0.85</text>
     </g>
    </g>
    <g id="ytick_3">
     <g id="line2d_11">
      <path d="M 38.861377 61.46056 
L 412.721377 61.46056 
" clip-path="url(#p98ace314a6)" style="fill: none; stroke: #e7e9ec; stroke-width: 0.55; stroke-linecap: square"/>
     </g>
     <g id="line2d_12">
      <g>
       <use xlink:href="#me85eac43ed" x="38.861377" y="61.46056" style="stroke: #000000; stroke-width: 0.6"/>
      </g>
     </g>
     <g id="text_9">
      <text style="font-size: 7px; font-family: 'Arial', 'Helvetica', 'DejaVu Sans', sans-serif; text-anchor: end" x="31.861377" y="64.008656" transform="rotate(-0 31.861377 64.008656)">0.95</text>
     </g>
    </g>
    <g id="ytick_4">
     <g id="line2d_13">
      <path d="M 38.861377 41.26456 
L 412.721377 41.26456 
" clip-path="url(#p98ace314a6)" style="fill: none; stroke: #e7e9ec; stroke-width: 0.55; stroke-linecap: square"/>
     </g>
     <g id="line2d_14">
      <g>
       <use xlink:href="#me85eac43ed" x="38.861377" y="41.26456" style="stroke: #000000; stroke-width: 0.6"/>
      </g>
     </g>
     <g id="text_10">
      <text style="font-size: 7px; font-family: 'Arial', 'Helvetica', 'DejaVu Sans', sans-serif; text-anchor: end" x="31.861377" y="43.812656" transform="rotate(-0 31.861377 43.812656)">1.00</text>
     </g>
    </g>
    <g id="text_11">
     <text style="font-size: 7.5px; font-family: 'Arial', 'Helvetica', 'DejaVu Sans', sans-serif; text-anchor: middle" x="12.660205" y="99.83296" transform="rotate(-90 12.660205 99.83296)">Accuracy</text>
    </g>
   </g>
   <g id="line2d_15">
    <path d="M 55.855013 41.26456 
L 123.829559 41.26456 
L 191.804104 41.26456 
L 259.77865 41.26456 
L 327.753195 41.26456 
L 395.727741 41.26456 
" clip-path="url(#p98ace314a6)" style="fill: none; stroke: #8594a6; stroke-width: 1.2; stroke-linecap: square"/>
    <defs>
     <path id="m647af035e2" d="M 0 2.1 
C 0.556927 2.1 1.091118 1.878731 1.484924 1.484924 
C 1.878731 1.091118 2.1 0.556927 2.1 0 
C 2.1 -0.556927 1.878731 -1.091118 1.484924 -1.484924 
C 1.091118 -1.878731 0.556927 -2.1 0 -2.1 
C -0.556927 -2.1 -1.091118 -1.878731 -1.484924 -1.484924 
C -1.878731 -1.091118 -2.1 -0.556927 -2.1 0 
C -2.1 0.556927 -1.878731 1.091118 -1.484924 1.484924 
C -1.091118 1.878731 -0.556927 2.1 0 2.1 
z
" style="stroke: #8594a6"/>
    </defs>
    <g clip-path="url(#p98ace314a6)">
     <use xlink:href="#m647af035e2" x="55.855013" y="41.26456" style="fill: #8594a6; stroke: #8594a6"/>
     <use xlink:href="#m647af035e2" x="123.829559" y="41.26456" style="fill: #8594a6; stroke: #8594a6"/>
     <use xlink:href="#m647af035e2" x="191.804104" y="41.26456" style="fill: #8594a6; stroke: #8594a6"/>
     <use xlink:href="#m647af035e2" x="259.77865" y="41.26456" style="fill: #8594a6; stroke: #8594a6"/>
     <use xlink:href="#m647af035e2" x="327.753195" y="41.26456" style="fill: #8594a6; stroke: #8594a6"/>
     <use xlink:href="#m647af035e2" x="395.727741" y="41.26456" style="fill: #8594a6; stroke: #8594a6"/>
    </g>
   </g>
   <g id="line2d_16">
    <path d="M 55.855013 91.75456 
L 123.829559 91.75456 
L 191.804104 91.75456 
L 259.77865 116.99956 
L 327.753195 116.99956 
L 395.727741 116.99956 
" clip-path="url(#p98ace314a6)" style="fill: none; stroke: #31688e; stroke-width: 1.2; stroke-linecap: square"/>
    <defs>
     <path id="m750f5c6da5" d="M 0 2.1 
C 0.556927 2.1 1.091118 1.878731 1.484924 1.484924 
C 1.878731 1.091118 2.1 0.556927 2.1 0 
C 2.1 -0.556927 1.878731 -1.091118 1.484924 -1.484924 
C 1.091118 -1.878731 0.556927 -2.1 0 -2.1 
C -0.556927 -2.1 -1.091118 -1.878731 -1.484924 -1.484924 
C -1.878731 -1.091118 -2.1 -0.556927 -2.1 0 
C -2.1 0.556927 -1.878731 1.091118 -1.484924 1.484924 
C -1.091118 1.878731 -0.556927 2.1 0 2.1 
z
" style="stroke: #31688e"/>
    </defs>
    <g clip-path="url(#p98ace314a6)">
     <use xlink:href="#m750f5c6da5" x="55.855013" y="91.75456" style="fill: #31688e; stroke: #31688e"/>
     <use xlink:href="#m750f5c6da5" x="123.829559" y="91.75456" style="fill: #31688e; stroke: #31688e"/>
     <use xlink:href="#m750f5c6da5" x="191.804104" y="91.75456" style="fill: #31688e; stroke: #31688e"/>
     <use xlink:href="#m750f5c6da5" x="259.77865" y="116.99956" style="fill: #31688e; stroke: #31688e"/>
     <use xlink:href="#m750f5c6da5" x="327.753195" y="116.99956" style="fill: #31688e; stroke: #31688e"/>
     <use xlink:href="#m750f5c6da5" x="395.727741" y="116.99956" style="fill: #31688e; stroke: #31688e"/>
    </g>
   </g>
   <g id="patch_3">
    <path d="M 38.861377 170.51896 
L 38.861377 29.14696 
" style="fill: none; stroke: #000000; stroke-width: 0.65; stroke-linejoin: miter; stroke-linecap: square"/>
   </g>
   <g id="patch_4">
    <path d="M 38.861377 170.51896 
L 412.721377 170.51896 
" style="fill: none; stroke: #000000; stroke-width: 0.65; stroke-linejoin: miter; stroke-linecap: square"/>
   </g>
   <g id="legend_1">
    <g id="line2d_17">
     <path d="M 128.181299 12.646191 
L 135.181299 12.646191 
L 142.181299 12.646191 
" style="fill: none; stroke: #8594a6; stroke-width: 1.2; stroke-linecap: square"/>
     <g>
      <use xlink:href="#m647af035e2" x="135.181299" y="12.646191" style="fill: #8594a6; stroke: #8594a6"/>
     </g>
    </g>
    <g id="text_12">
     <text style="font-size: 7px; font-family: 'Arial', 'Helvetica', 'DejaVu Sans', sans-serif; text-anchor: start" x="147.781299" y="15.096191" transform="rotate(-0 147.781299 15.096191)">Augmented templates</text>
    </g>
    <g id="line2d_18">
     <path d="M 229.872705 12.646191 
L 236.872705 12.646191 
L 243.872705 12.646191 
" style="fill: none; stroke: #31688e; stroke-width: 1.2; stroke-linecap: square"/>
     <g>
      <use xlink:href="#m750f5c6da5" x="236.872705" y="12.646191" style="fill: #31688e; stroke: #31688e"/>
     </g>
    </g>
    <g id="text_13">
     <text style="font-size: 7px; font-family: 'Arial', 'Helvetica', 'DejaVu Sans', sans-serif; text-anchor: start" x="249.472705" y="15.096191" transform="rotate(-0 249.472705 15.096191)">Segmented target digits</text>
    </g>
   </g>
  </g>
 </g>
 <defs>
  <clipPath id="p98ace314a6">
   <rect x="38.861377" y="29.14696" width="373.86" height="141.372"/>
  </clipPath>
 </defs>
</svg>
