<?xml version="1.0" encoding="utf-8" standalone="no"?>
<!DOCTYPE svg PUBLIC "-//W3C//DTD SVG 1.1//EN"
  "http://www.w3.org/Graphics/SVG/1.1/DTD/svg11.dtd">
<svg xmlns:xlink="http://www.w3.org/1999/xlink" width="319.347195pt" height="185.924057pt" viewBox="0 0 319.347195 185.924057" xmlns="http://www.w3.org/2000/svg" version="1.1">
 <metadata>
  <rdf:RDF xmlns:dc="http://purl.org/dc/elements/1.1/" xmlns:cc="http://creativecommons.org/ns#" xmlns:rdf="http://www.w3.org/1999/02/22-rdf-syntax-ns#">
   <cc:Work>
    <dc:type rdf:resource="http://purl.org/dc/dcmitype/StillImage"/>
    <dc:date>2026-06-15T15:56:52.179236</dc:date>
    <dc:format>image/svg+xml</dc:format>
    <dc:creator>
     <cc:Agent>
      <dc:title>Matplotlib v3.11.0, https://matplotlib.org/</dc:title>
     </cc:Agent>
    </dc:creator>
   </cc:Work>
  </rdf:RDF>
 </metadata>
 <defs>
  <style type="text/css">*{stroke-linejoin: round; stroke-linecap: butt}</style>
 </defs>
 <g id="figure_1">
  <g id="patch_1">
   <path d="M 0 185.924057 
L 319.347195 185.924057 
L 319.347195 0 
L 0 0 
z
" style="fill: #ffffff"/>
  </g>
  <g id="axes_1">
   <g id="patch_2">
    <path d="M 34.968574 154.116 
L 311.178574 154.116 
L 311.178574 7.2 
L 34.968574 7.2 
z
" style="fill: #ffffff"/>
   </g>
   <g id="matplotlib.axis_1">
    <g id="xtick_1">
     <g id="line2d_1">
      <defs>
       <path id="m274f3ae051" d="M 0 0 
L 0 3.5 
" style="stroke: #000000; stroke-width: 0.6"/>
      </defs>
      <g>
       <use xlink:href="#m274f3ae051" x="47.523574" y="154.116" style="stroke: #000000; stroke-width: 0.6"/>
      </g>
     </g>
     <g id="text_1">
      <text style="font-size: 7px; font-family: 'Arial', 'Helvetica', 'DejaVu Sans', sans-serif; text-anchor: middle" x="47.523574" y="166.212191" transform="rotate(-0 47.523574 166.212191)">0.3</text>
     </g>
    </g>
    <g id="xtick_2">
     <g id="line2d_2">
      <g>
       <use xlink:href="#m274f3ae051" x="90.816678" y="154.116" style="stroke: #000000; stroke-width: 0.6"/>
      </g>
     </g>
     <g id="text_2">
      <text style="font-size: 7px; font-family: 'Arial', 'Helvetica', 'DejaVu Sans', sans-serif; text-anchor: middle" x="90.816678" y="166.212191" transform="rotate(-0 90.816678 166.212191)">0.4</text>
     </g>
    </g>
    <g id="xtick_3">
     <g id="line2d_3">
      <g>
       <use xlink:href="#m274f3ae051" x="134.109781" y="154.116" style="stroke: #000000; stroke-width: 0.6"/>
      </g>
     </g>
     <g id="text_3">
      <text style="font-size: 7px; font-family: 'Arial', 'Helvetica', 'DejaVu Sans', sans-serif; text-anchor: middle" x="134.109781" y="166.212191" transform="rotate(-0 134.109781 166.212191)">0.5</text>
     </g>
    </g>
    <g id="xtick_4">
     <g id="line2d_4">
      <g>
       <use xlink:href="#m274f3ae051" x="177.402885" y="154.116" style="stroke: #000000; stroke-width: 0.6"/>
      </g>
     </g>
     <g id="text_4">
      <text style="font-size: 7px; font-family: 'Arial', 'Helvetica', 'DejaVu Sans', sans-serif; text-anchor: middle" x="177.402885" y="166.212191" transform="rotate(-0 177.402885 166.212191)">0.6</text>
     </g>
    </g>
    <g id="xtick_5">
     <g id="line2d_5">
      <g>
       <use xlink:href="#m274f3ae051" x="220.695988" y="154.116" style="stroke: #000000; stroke-width: 0.6"/>
      </g>
     </g>
     <g id="text_5">
      <text style="font-size: 7px; font-family: 'Arial', 'Helvetica', 'DejaVu Sans', sans-serif; text-anchor: middle" x="220.695988" y="166.212191" transform="rotate(-0 220.695988 166.212191)">0.7</text>
     </g>
    </g>
    <g id="xtick_6">
     <g id="line2d_6">
      <g>
       <use xlink:href="#m274f3ae051" x="263.989091" y="154.116" style="stroke: #000000; stroke-width: 0.6"/>
      </g>
     </g>
     <g id="text_6">
      <text style="font-size: 7px; font-family: 'Arial', 'Helvetica', 'DejaVu Sans', sans-serif; text-anchor: middle" x="263.989091" y="166.212191" transform="rotate(-0 263.989091 166.212191)">0.8</text>
     </g>
    </g>
    <g id="xtick_7">
     <g id="line2d_7">
      <g>
       <use xlink:href="#m274f3ae051" x="307.282195" y="154.116" style="stroke: #000000; stroke-width: 0.6"/>
      </g>
     </g>
     <g id="text_7">
      <text style="font-size: 7px; font-family: 'Arial', 'Helvetica', 'DejaVu Sans', sans-serif; text-anchor: middle" x="307.282195" y="166.212191" transform="rotate(-0 307.282195 166.212191)">0.9</text>
     </g>
    </g>
    <g id="text_8">
     <text style="font-size: 7.5px; font-family: 'Arial', 'Helvetica', 'DejaVu Sans', sans-serif; text-anchor: middle" x="173.073574" y="177.145541" transform="rotate(-0 173.073574 177.145541)">Digit acceptance threshold</text>
    </g>
   </g>
   <g id="matplotlib.axis_2">
    <g id="ytick_1">
     <g id="line2d_8">
      <path d="M 34.968574 154.116 
L 311.178574 154.116 
" clip-path="url(#pf0a2700bef)" style="fill: none; stroke: #e7e9ec; stroke-width: 0.55; stroke-linecap: square"/>
     </g>
     <g id="line2d_9">
      <defs>
       <path id="m9f9675638c" d="M 0 0 
L -3.5 0 
" style="stroke: #000000; stroke-width: 0.6"/>
      </defs>
      <g>
       <use xlink:href="#m9f9675638c" x="34.968574" y="154.116" style="stroke: #000000; stroke-width: 0.6"/>
      </g>
     </g>
     <g id="text_9">
      <text style="font-size: 7px; font-family: 'Arial', 'Helvetica', 'DejaVu Sans', sans-serif; text-anchor: end" x="27.968574" y="156.664096" transform="rotate(-0 27.968574 156.664096)">0.0</text>
     </g>
    </g>
    <g id="ytick_2">
     <g id="line2d_10">
      <path d="M 34.968574 126.132 
L 311.178574 126.132 
" clip-path="url(#pf0a2700bef)" style="fill: none; stroke: #e7e9ec; stroke-width: 0.55; stroke-linecap: square"/>
     </g>
     <g id="line2d_11">
      <g>
       <use xlink:href="#m9f9675638c" x="34.968574" y="126.132" style="stroke: #000000; stroke-width: 0.6"/>
      </g>
     </g>
     <g id="text_10">
      <text style="font-size: 7px; font-family: 'Arial', 'Helvetica', 'DejaVu Sans', sans-serif; text-anchor: end" x="27.968574" y="128.680096" transform="rotate(-0 27.968574 128.680096)">0.2</text>
     </g>
    </g>
    <g id="ytick_3">
     <g id="line2d_12">
      <path d="M 34.968574 98.148 
L 311.178574 98.148 
" clip-path="url(#pf0a2700bef)" style="fill: none; stroke: #e7e9ec; stroke-width: 0.55; stroke-linecap: square"/>
     </g>
     <g id="line2d_13">
      <g>
       <use xlink:href="#m9f9675638c" x="34.968574" y="98.148" style="stroke: #000000; stroke-width: 0.6"/>
      </g>
     </g>
     <g id="text_11">
      <text style="font-size: 7px; font-family: 'Arial', 'Helvetica', 'DejaVu Sans', sans-serif; text-anchor: end" x="27.968574" y="100.696096" transform="rotate(-0 27.968574 100.696096)">0.4</text>
     </g>
    </g>
    <g id="ytick_4">
     <g id="line2d_14">
      <path d="M 34.968574 70.164 
L 311.178574 70.164 
" clip-path="url(#pf0a2700bef)" style="fill: none; stroke: #e7e9ec; stroke-width: 0.55; stroke-linecap: square"/>
     </g>
     <g id="line2d_15">
      <g>
       <use xlink:href="#m9f9675638c" x="34.968574" y="70.164" style="stroke: #000000; stroke-width: 0.6"/>
      </g>
     </g>
     <g id="text_12">
      <text style="font-size: 7px; font-family: 'Arial', 'Helvetica', 'DejaVu Sans', sans-serif; text-anchor: end" x="27.968574" y="72.712096" transform="rotate(-0 27.968574 72.712096)">0.6</text>
     </g>
    </g>
    <g id="ytick_5">
     <g id="line2d_16">
      <path d="M 34.968574 42.18 
L 311.178574 42.18 
" clip-path="url(#pf0a2700bef)" style="fill: none; stroke: #e7e9ec; stroke-width: 0.55; stroke-linecap: square"/>
     </g>
     <g id="line2d_17">
      <g>
       <use xlink:href="#m9f9675638c" x="34.968574" y="42.18" style="stroke: #000000; stroke-width: 0.6"/>
      </g>
     </g>
     <g id="text_13">
      <text style="font-size: 7px; font-family: 'Arial', 'Helvetica', 'DejaVu Sans', sans-serif; text-anchor: end" x="27.968574" y="44.728096" transform="rotate(-0 27.968574 44.728096)">0.8</text>
     </g>
    </g>
    <g id="ytick_6">
     <g id="line2d_18">
      <path d="M 34.968574 14.196 
L 311.178574 14.196 
" clip-path="url(#pf0a2700bef)" style="fill: none; stroke: #e7e9ec; stroke-width: 0.55; stroke-linecap: square"/>
     </g>
     <g id="line2d_19">
      <g>
       <use xlink:href="#m9f9675638c" x="34.968574" y="14.196" style="stroke: #000000; stroke-width: 0.6"/>
      </g>
     </g>
     <g id="text_14">
      <text style="font-size: 7px; font-family: 'Arial', 'Helvetica', 'DejaVu Sans', sans-serif; text-anchor: end" x="27.968574" y="16.744096" transform="rotate(-0 27.968574 16.744096)">1.0</text>
     </g>
    </g>
    <g id="text_15">
     <text style="font-size: 7.5px; font-family: 'Arial', 'Helvetica', 'DejaVu Sans', sans-serif; text-anchor: middle" x="12.660205" y="80.658" transform="rotate(-90 12.660205 80.658)">Score</text>
    </g>
   </g>
   <g id="line2d_20">
    <path d="M 47.523574 49.176 
L 51.852885 49.176 
L 56.182195 49.176 
L 60.511505 49.176 
L 64.840816 49.176 
L 69.170126 49.176 
L 73.499436 49.176 
L 77.828747 49.176 
L 82.158057 49.176 
L 86.487367 60.836 
L 90.816678 60.836 
L 95.145988 60.836 
L 99.475298 60.836 
L 103.804609 68.011385 
L 108.133919 68.011385 
L 112.463229 68.011385 
L 116.79254 60.836 
L 121.12185 77.796 
L 125.45116 77.796 
L 129.780471 77.796 
L 134.109781 77.796 
L 138.439091 77.796 
L 142.768402 70.164 
L 147.097712 70.164 
L 151.427022 70.164 
L 155.756333 70.164 
L 160.085643 70.164 
L 164.414954 70.164 
L 168.744264 70.164 
L 173.073574 70.164 
L 177.402885 70.164 
L 181.732195 70.164 
L 186.061505 60.836 
L 190.390816 60.836 
L 194.720126 60.836 
L 199.049436 60.836 
L 203.378747 60.836 
L 207.708057 60.836 
L 212.037367 60.836 
L 216.366678 60.836 
L 220.695988 84.156 
L 225.025298 84.156 
L 229.354609 84.156 
L 233.683919 84.156 
L 238.013229 84.156 
L 242.34254 84.156 
L 246.67185 84.156 
L 251.00116 114.138857 
L 255.330471 114.138857 
L 259.659781 114.138857 
L 263.989091 114.138857 
L 268.318402 114.138857 
L 272.647712 114.138857 
L 276.977022 114.138857 
L 281.306333 114.138857 
L 285.635643 114.138857 
L 289.964954 114.138857 
L 294.294264 154.116 
L 298.623574 154.116 
" clip-path="url(#pf0a2700bef)" style="fill: none; stroke: #31688e; stroke-width: 1.4; stroke-linecap: square"/>
   </g>
   <g id="line2d_21">
    <path d="M 47.523574 14.196 
L 51.852885 14.196 
L 56.182195 14.196 
L 60.511505 14.196 
L 64.840816 14.196 
L 69.170126 14.196 
L 73.499436 14.196 
L 77.828747 14.196 
L 82.158057 14.196 
L 86.487367 37.516 
L 90.816678 37.516 
L 95.145988 37.516 
L 99.475298 37.516 
L 103.804609 60.836 
L 108.133919 60.836 
L 112.463229 60.836 
L 116.79254 60.836 
L 121.12185 84.156 
L 125.45116 84.156 
L 129.780471 84.156 
L 134.109781 84.156 
L 138.439091 84.156 
L 142.768402 84.156 
L 147.097712 84.156 
L 151.427022 84.156 
L 155.756333 84.156 
L 160.085643 84.156 
L 164.414954 84.156 
L 168.744264 84.156 
L 173.073574 84.156 
L 177.402885 84.156 
L 181.732195 84.156 
L 186.061505 84.156 
L 190.390816 84.156 
L 194.720126 84.156 
L 199.049436 84.156 
L 203.378747 84.156 
L 207.708057 84.156 
L 212.037367 84.156 
L 216.366678 84.156 
L 220.695988 107.476 
L 225.025298 107.476 
L 229.354609 107.476 
L 233.683919 107.476 
L 238.013229 107.476 
L 242.34254 107.476 
L 246.67185 107.476 
L 251.00116 130.796 
L 255.330471 130.796 
L 259.659781 130.796 
L 263.989091 130.796 
L 268.318402 130.796 
L 272.647712 130.796 
L 276.977022 130.796 
L 281.306333 130.796 
L 285.635643 130.796 
L 289.964954 130.796 
L 294.294264 154.116 
L 298.623574 154.116 
" clip-path="url(#pf0a2700bef)" style="fill: none; stroke: #6d9f71; stroke-width: 1.4; stroke-linecap: square"/>
   </g>
   <g id="line2d_22">
    <path d="M 47.523574 154.116 
L 47.523574 7.2 
" clip-path="url(#pf0a2700bef)" style="fill: none; stroke-dasharray: 0.7,1.155; stroke-dashoffset: 0; stroke: #555555; stroke-width: 0.7"/>
   </g>
   <g id="patch_3">
    <path d="M 34.968574 154.116 
L 34.968574 7.2 
" style="fill: none; stroke: #000000; stroke-width: 0.65; stroke-linejoin: miter; stroke-linecap: square"/>
   </g>
   <g id="patch_4">
    <path d="M 34.968574 154.116 
L 311.178574 154.116 
" style="fill: none; stroke: #000000; stroke-width: 0.65; stroke-linejoin: miter; stroke-linecap: square"/>
   </g>
   <g id="text_16">
    <text style="font-size: 6.5px; font-family: 'Arial', 'Helvetica', 'DejaVu Sans', sans-serif; fill: #555555" transform="translate(52.718747 142.843937)">best fixed</text>
    <text style="font-size: 6.5px; font-family: 'Arial', 'Helvetica', 'DejaVu Sans', sans-serif; fill: #555555" transform="translate(52.718747 149.9184)">threshold</text>
   </g>
   <g id="legend_1">
    <g id="line2d_23">
     <path d="M 232.368418 16.146191 
L 239.368418 16.146191 
L 246.368418 16.146191 
" style="fill: none; stroke: #31688e; stroke-width: 1.4; stroke-linecap: square"/>
    </g>
    <g id="text_17">
     <text style="font-size: 7px; font-family: 'Arial', 'Helvetica', 'DejaVu Sans', sans-serif; text-anchor: start" x="251.968418" y="18.596191" transform="rotate(-0 251.968418 18.596191)">Digit/non-digit F1</text>
    </g>
    <g id="line2d_24">
     <path d="M 232.368418 26.215664 
L 239.368418 26.215664 
L 246.368418 26.215664 
" style="fill: none; stroke: #6d9f71; stroke-width: 1.4; stroke-linecap: square"/>
    </g>
    <g id="text_18">
     <text style="font-size: 7px; font-family: 'Arial', 'Helvetica', 'DejaVu Sans', sans-serif; text-anchor: start" x="251.968418" y="28.665664" transform="rotate(-0 251.968418 28.665664)">Digit recognition</text>
    </g>
   </g>
  </g>
 </g>
 <defs>
  <clipPath id="pf0a2700bef">
   <rect x="34.968574" y="7.2" width="276.21" height="146.916"/>
  </clipPath>
 </defs>
</svg>
